<svg xmlns="http://www.w3.org/2000/svg" xmlns:xlink="http://www.w3.org/1999/xlink" width="2000" zoomAndPan="magnify" viewBox="0 0 1500 1499.999933" height="2000" preserveAspectRatio="xMidYMid meet" version="1.0"><defs><clipPath id="b4f9b2e6a5"><path d="M 450 450 L 882 450 L 882 882 L 450 882 Z M 450 450 " clip-rule="nonzero"/></clipPath><clipPath id="5798ab8dd2"><path d="M 819 819 L 1050 819 L 1050 1050 L 819 1050 Z M 819 819 " clip-rule="nonzero"/></clipPath><clipPath id="4ea302c41f"><path d="M 986 987 L 1078 987 L 1078 1079 L 986 1079 Z M 986 987 " clip-rule="nonzero"/></clipPath><clipPath id="a43bc22ac0"><path d="M 986.863281 1055.78125 L 1058.417969 987.097656 L 1113.191406 1044.160156 L 1041.636719 1112.847656 Z M 986.863281 1055.78125 " clip-rule="nonzero"/></clipPath><clipPath id="b239b8a60d"><path d="M 1077.390625 1078.527344 L 1058.367188 987.144531 L 986.863281 1055.78125 Z M 1077.390625 1078.527344 " clip-rule="nonzero"/></clipPath><clipPath id="04af916f1d"><path d="M 0.640625 0.121094 L 91.601562 0.121094 L 91.601562 91.558594 L 0.640625 91.558594 Z M 0.640625 0.121094 " clip-rule="nonzero"/></clipPath><clipPath id="940adf0d92"><path d="M 0.863281 68.78125 L 72.417969 0.0976562 L 127.191406 57.160156 L 55.636719 125.847656 Z M 0.863281 68.78125 " clip-rule="nonzero"/></clipPath><clipPath id="d05703f685"><path d="M 91.390625 91.527344 L 72.367188 0.144531 L 0.863281 68.78125 Z M 91.390625 91.527344 " clip-rule="nonzero"/></clipPath><clipPath id="d5a1e48b48"><rect x="0" width="92" y="0" height="92"/></clipPath><clipPath id="8c68b06eb8"><path d="M 698.605469 1066.257812 L 1100 1066.257812 L 1100 1206 L 698.605469 1206 Z M 698.605469 1066.257812 " clip-rule="nonzero"/></clipPath><clipPath id="341a3d01e7"><path d="M 1080.449219 1067.25 C 1089.976562 1073.625 1094.773438 1077.675781 1096.949219 1081.875 C 1099.050781 1086.148438 1100.324219 1092.300781 1099.574219 1096.425781 C 1098.976562 1099.875 1096.875 1102.800781 1094.476562 1105.199219 C 1091.925781 1107.75 1088.101562 1109.550781 1084.351562 1110.898438 C 1080.226562 1112.324219 1075.425781 1112.625 1070.476562 1113.074219 C 1064.851562 1113.675781 1058.699219 1113.824219 1052.25 1113.898438 C 1045.125 1113.976562 1038.898438 1113.976562 1029.449219 1113.375 C 1014.074219 1112.476562 986.476562 1108.800781 968.550781 1107.375 C 954.449219 1106.25 943.425781 1105.800781 930.601562 1105.199219 C 917.324219 1104.523438 903.675781 1103.476562 890.175781 1103.476562 C 876.523438 1103.398438 862.648438 1103.851562 849.148438 1105.050781 C 835.726562 1106.175781 822.226562 1107.75 809.398438 1110.375 C 797.023438 1112.925781 784.800781 1116.375 773.476562 1120.351562 C 762.976562 1123.949219 752.625 1128.226562 743.773438 1132.949219 C 736.125 1137.074219 728.625 1141.574219 723.226562 1146.449219 C 718.949219 1150.351562 715.199219 1154.851562 713.175781 1158.824219 C 711.601562 1161.898438 709.875 1164.824219 710.851562 1167.675781 C 712.351562 1171.875 720.75 1176.75 726.675781 1179.601562 C 732.675781 1182.449219 739.574219 1183.351562 746.699219 1184.699219 C 754.648438 1186.199219 761.398438 1186.800781 772.199219 1187.773438 C 790.875 1189.574219 839.476562 1191 848.550781 1193.101562 C 850.648438 1193.550781 851.25 1193.773438 852.226562 1194.601562 C 853.199219 1195.425781 853.949219 1197 854.25 1197.976562 C 854.476562 1198.726562 854.476562 1199.25 854.324219 1200 C 854.101562 1201.050781 853.273438 1202.773438 852.675781 1203.601562 C 852.148438 1204.125 851.699219 1204.5 851.023438 1204.800781 C 850.050781 1205.175781 848.324219 1205.550781 847.125 1205.398438 C 845.925781 1205.175781 844.425781 1204.199219 843.675781 1203.523438 C 843.074219 1203 842.773438 1202.550781 842.550781 1201.800781 C 842.175781 1200.824219 841.875 1199.101562 842.175781 1197.898438 C 842.398438 1196.699219 843.226562 1195.351562 844.199219 1194.523438 C 845.175781 1193.699219 846.824219 1193.25 847.875 1193.101562 C 848.625 1193.023438 849.148438 1193.023438 849.898438 1193.324219 C 850.875 1193.699219 852.375 1194.601562 853.125 1195.574219 C 853.875 1196.550781 854.398438 1198.050781 854.398438 1199.324219 C 854.324219 1200.601562 853.875 1202.101562 853.050781 1203.074219 C 852.300781 1204.050781 851.773438 1204.726562 849.75 1205.25 C 840.976562 1207.648438 790.125 1202.324219 770.625 1200.523438 C 759.148438 1199.476562 752.023438 1198.800781 743.398438 1197.074219 C 735.300781 1195.425781 727.125 1193.699219 720.300781 1190.625 C 714.300781 1187.925781 708 1184.625 704.324219 1180.273438 C 701.175781 1176.375 699.074219 1171.351562 698.773438 1166.550781 C 698.476562 1161.601562 700.574219 1155.976562 703.125 1151.101562 C 706.050781 1145.699219 710.773438 1140.523438 716.101562 1135.875 C 722.324219 1130.398438 730.351562 1125.601562 738.75 1121.101562 C 748.125 1116.148438 759 1111.726562 770.023438 1107.898438 C 781.875 1103.773438 794.773438 1100.175781 807.675781 1097.625 C 820.949219 1094.925781 834.898438 1093.351562 848.625 1092.148438 C 862.574219 1090.949219 874.5 1090.425781 890.699219 1090.5 C 912.976562 1090.648438 945.375 1092.75 969.898438 1094.550781 C 991.273438 1096.199219 1014.675781 1099.648438 1029.75 1100.550781 C 1038.898438 1101.074219 1044.898438 1101.074219 1051.726562 1101 C 1057.800781 1101 1063.199219 1101.074219 1068.75 1100.398438 C 1074.148438 1099.726562 1082.101562 1100.023438 1084.648438 1097.25 C 1086.523438 1095.148438 1086.601562 1090.648438 1085.699219 1088.023438 C 1084.949219 1085.550781 1082.175781 1083.675781 1080 1081.875 C 1077.824219 1079.925781 1074.148438 1078.648438 1072.726562 1076.851562 C 1071.601562 1075.574219 1071.074219 1074.074219 1070.925781 1072.800781 C 1070.851562 1071.75 1071.148438 1070.773438 1071.523438 1069.875 C 1071.898438 1069.050781 1072.648438 1068.148438 1073.398438 1067.625 C 1074.148438 1067.023438 1075.050781 1066.5 1076.101562 1066.425781 C 1077.375 1066.273438 1080.449219 1067.25 1080.449219 1067.25 " clip-rule="nonzero"/></clipPath><clipPath id="f3383056f1"><path d="M 0.605469 0.257812 L 402 0.257812 L 402 140 L 0.605469 140 Z M 0.605469 0.257812 " clip-rule="nonzero"/></clipPath><clipPath id="c4f1a2c5fb"><path d="M 382.449219 1.25 C 391.976562 7.625 396.773438 11.675781 398.949219 15.875 C 401.050781 20.148438 402.324219 26.300781 401.574219 30.425781 C 400.976562 33.875 398.875 36.800781 396.476562 39.199219 C 393.925781 41.75 390.101562 43.550781 386.351562 44.898438 C 382.226562 46.324219 377.425781 46.625 372.476562 47.074219 C 366.851562 47.675781 360.699219 47.824219 354.25 47.898438 C 347.125 47.976562 340.898438 47.976562 331.449219 47.375 C 316.074219 46.476562 288.476562 42.800781 270.550781 41.375 C 256.449219 40.25 245.425781 39.800781 232.601562 39.199219 C 219.324219 38.523438 205.675781 37.476562 192.175781 37.476562 C 178.523438 37.398438 164.648438 37.851562 151.148438 39.050781 C 137.726562 40.175781 124.226562 41.75 111.398438 44.375 C 99.023438 46.925781 86.800781 50.375 75.476562 54.351562 C 64.976562 57.949219 54.625 62.226562 45.773438 66.949219 C 38.125 71.074219 30.625 75.574219 25.226562 80.449219 C 20.949219 84.351562 17.199219 88.851562 15.175781 92.824219 C 13.601562 95.898438 11.875 98.824219 12.851562 101.675781 C 14.351562 105.875 22.75 110.75 28.675781 113.601562 C 34.675781 116.449219 41.574219 117.351562 48.699219 118.699219 C 56.648438 120.199219 63.398438 120.800781 74.199219 121.773438 C 92.875 123.574219 141.476562 125 150.550781 127.101562 C 152.648438 127.550781 153.25 127.773438 154.226562 128.601562 C 155.199219 129.425781 155.949219 131 156.25 131.976562 C 156.476562 132.726562 156.476562 133.25 156.324219 134 C 156.101562 135.050781 155.273438 136.773438 154.675781 137.601562 C 154.148438 138.125 153.699219 138.5 153.023438 138.800781 C 152.050781 139.175781 150.324219 139.550781 149.125 139.398438 C 147.925781 139.175781 146.425781 138.199219 145.675781 137.523438 C 145.074219 137 144.773438 136.550781 144.550781 135.800781 C 144.175781 134.824219 143.875 133.101562 144.175781 131.898438 C 144.398438 130.699219 145.226562 129.351562 146.199219 128.523438 C 147.175781 127.699219 148.824219 127.25 149.875 127.101562 C 150.625 127.023438 151.148438 127.023438 151.898438 127.324219 C 152.875 127.699219 154.375 128.601562 155.125 129.574219 C 155.875 130.550781 156.398438 132.050781 156.398438 133.324219 C 156.324219 134.601562 155.875 136.101562 155.050781 137.074219 C 154.300781 138.050781 153.773438 138.726562 151.75 139.25 C 142.976562 141.648438 92.125 136.324219 72.625 134.523438 C 61.148438 133.476562 54.023438 132.800781 45.398438 131.074219 C 37.300781 129.425781 29.125 127.699219 22.300781 124.625 C 16.300781 121.925781 10 118.625 6.324219 114.273438 C 3.175781 110.375 1.074219 105.351562 0.773438 100.550781 C 0.476562 95.601562 2.574219 89.976562 5.125 85.101562 C 8.050781 79.699219 12.773438 74.523438 18.101562 69.875 C 24.324219 64.398438 32.351562 59.601562 40.75 55.101562 C 50.125 50.148438 61 45.726562 72.023438 41.898438 C 83.875 37.773438 96.773438 34.175781 109.675781 31.625 C 122.949219 28.925781 136.898438 27.351562 150.625 26.148438 C 164.574219 24.949219 176.5 24.425781 192.699219 24.5 C 214.976562 24.648438 247.375 26.75 271.898438 28.550781 C 293.273438 30.199219 316.675781 33.648438 331.75 34.550781 C 340.898438 35.074219 346.898438 35.074219 353.726562 35 C 359.800781 35 365.199219 35.074219 370.75 34.398438 C 376.148438 33.726562 384.101562 34.023438 386.648438 31.25 C 388.523438 29.148438 388.601562 24.648438 387.699219 22.023438 C 386.949219 19.550781 384.175781 17.675781 382 15.875 C 379.824219 13.925781 376.148438 12.648438 374.726562 10.851562 C 373.601562 9.574219 373.074219 8.074219 372.925781 6.800781 C 372.851562 5.75 373.148438 4.773438 373.523438 3.875 C 373.898438 3.050781 374.648438 2.148438 375.398438 1.625 C 376.148438 1.023438 377.050781 0.5 378.101562 0.425781 C 379.375 0.273438 382.449219 1.25 382.449219 1.25 " clip-rule="nonzero"/></clipPath><clipPath id="5b629dedca"><rect x="0" width="402" y="0" height="140"/></clipPath></defs><path fill="#872e0b" d="M 840.230469 792.089844 C 901.402344 707.839844 894.070312 588.960938 818.160156 513.039062 C 734.09375 428.984375 597.300781 428.984375 513.246094 513.039062 C 429.167969 597.117188 429.167969 733.890625 513.246094 817.96875 C 589.152344 893.875 708.03125 901.210938 792.273438 840.050781 L 808.9375 856.695312 L 856.886719 808.746094 Z M 776.351562 776.171875 C 715.246094 837.265625 616.160156 837.277344 555.042969 776.171875 C 493.925781 715.054688 493.925781 615.957031 555.042969 554.851562 C 616.160156 493.742188 715.246094 493.742188 776.351562 554.851562 C 837.46875 615.957031 837.46875 715.054688 776.351562 776.171875 Z M 776.351562 776.171875 " fill-opacity="1" fill-rule="nonzero"/><g clip-path="url(#b4f9b2e6a5)"><path stroke-linecap="butt" transform="matrix(1.171875, 0, 0, 1.171875, 449.999995, 449.999941)" fill="none" stroke-linejoin="miter" d="M 332.9967 291.916742 C 385.196704 220.023402 378.940037 118.58006 314.163365 53.793388 C 242.426692 -17.933285 125.696682 -17.933285 53.970009 53.793388 C -17.776664 125.540061 -17.776664 242.253404 53.970009 314.000077 C 118.743348 378.773416 220.18669 385.033417 292.073363 332.843412 L 306.293364 347.046747 L 347.210035 306.130077 Z M 278.486695 278.333407 C 226.343357 330.466745 141.790017 330.476745 89.636679 278.333407 C 37.483341 226.18007 37.483341 141.616729 89.636679 89.473391 C 141.790017 37.32672 226.343357 37.32672 278.486695 89.473391 C 330.640033 141.616729 330.640033 226.18007 278.486695 278.333407 Z M 278.486695 278.333407 " stroke="#000000" stroke-width="0.005" stroke-opacity="1" stroke-miterlimit="4"/></g><path stroke-linecap="butt" transform="matrix(1.171875, 0, 0, 1.171875, 449.999995, 449.999941)" fill-opacity="1" fill="#872e0b" fill-rule="nonzero" stroke-linejoin="miter" d="M 109.303347 119.216727 C 82.223345 154.003397 79.980012 201.863401 102.54668 238.830071 C 104.690014 242.320071 109.256681 243.433404 112.753348 241.290071 C 116.243348 239.146737 117.350015 234.58007 115.216681 231.093403 L 115.216681 231.10007 C 95.830013 199.400067 97.76668 158.13673 121.000015 128.330061 C 123.523349 125.100061 122.943349 120.430061 119.706682 117.923394 C 116.480015 115.40006 111.810014 115.98006 109.303347 119.216727 Z M 109.303347 119.216727 " stroke="#000000" stroke-width="0.005" stroke-opacity="1" stroke-miterlimit="4"/><path fill="#872e0b" d="M 1037.695312 963.972656 L 875.789062 819.347656 L 819.5625 875.574219 L 964.175781 1037.492188 C 978.882812 1056.515625 1005.359375 1053.71875 1029.152344 1029.925781 C 1052.933594 1006.144531 1056.730469 978.675781 1037.695312 963.972656 Z M 1037.695312 963.972656 " fill-opacity="1" fill-rule="nonzero"/><g clip-path="url(#5798ab8dd2)"><path stroke-linecap="butt" transform="matrix(1.171875, 0, 0, 1.171875, 449.999995, 449.999941)" fill="none" stroke-linejoin="miter" d="M 501.500048 438.590088 L 363.340036 315.176744 L 315.360032 363.156748 L 438.763376 501.32676 C 451.313377 517.560095 473.906712 515.173428 494.210047 494.870093 C 514.503382 474.576758 517.743383 451.136756 501.500048 438.590088 Z M 501.500048 438.590088 " stroke="#000000" stroke-width="0.005" stroke-opacity="1" stroke-miterlimit="4"/></g><g clip-path="url(#4ea302c41f)"><g clip-path="url(#a43bc22ac0)"><g clip-path="url(#b239b8a60d)"><g transform="matrix(1, 0, 0, 1, 986, 987)"><g clip-path="url(#d5a1e48b48)"><g clip-path="url(#04af916f1d)"><g clip-path="url(#940adf0d92)"><g clip-path="url(#d05703f685)"><path fill="#872e0b" d="M 0.863281 68.78125 L 72.417969 0.0976562 L 127.191406 57.160156 L 55.636719 125.847656 Z M 0.863281 68.78125 " fill-opacity="1" fill-rule="nonzero"/></g></g></g></g></g></g></g></g><g clip-path="url(#8c68b06eb8)"><g clip-path="url(#341a3d01e7)"><g transform="matrix(1, 0, 0, 1, 698, 1066)"><g clip-path="url(#5b629dedca)"><g clip-path="url(#f3383056f1)"><g clip-path="url(#c4f1a2c5fb)"><rect x="-1028" width="2160" fill="#872e0b" height="2159.999904" y="-1395.999985" fill-opacity="1"/></g></g></g></g></g></g></svg>